<?xml version="1.0" encoding="utf-8"?>
<svg viewBox="0 0 500 350" xmlns="http://www.w3.org/2000/svg">
  <polygon points="37.873 335.746 44.382 335.746 47.479 310.638 37.872 310.639 37.873 335.746" style="fill: rgb(246, 204, 186);"/>
  <path d="M 36.143 342.535 L 61.35 342.535 L 61.35 342.282 C 61.349 337.98 56.957 334.492 51.538 334.492 L 46.933 331.718 L 38.343 334.492 L 36.142 334.492 L 36.143 342.535 Z" style="fill: rgb(225, 225, 225);"/>
  <polygon points="48.384 305.37 53.509 309.384 71.429 291.529 63.865 285.605 48.384 305.37" style="fill: rgb(246, 204, 186);"/>
  <path d="M 41.983 311.973 L 61.434 325.71 L 61.627 325.489 C 64.901 321.718 64.167 316.269 59.986 313.315 L 58.545 308.376 L 49.804 306.124 L 48.105 304.926 L 41.983 311.973 Z" style="fill: rgb(225, 225, 225);"/>
  <path d="M 79.029 190.974 C 79.029 190.974 87.667 199.933 83.828 220.73 L 87.051 256.339 L 87.884 257.989 C 88.9 260.004 88.51 262.444 86.913 264.039 L 86.228 266.165 L 85.588 270.324 L 61.751 306.159 L 52.632 296.56 L 67.35 262.965 L 63.351 254.325 L 54.072 224.25 L 47.673 279.283 L 48.952 326.638 L 36.705 326.638 L 29.115 273.844 L 21.116 199.612 L 25.278 190.974 L 79.029 190.974 Z" style="fill: rgb(68, 69, 90);"/>
  <path d="M 23.111 206.367 L 23.023 206.246 C 18.362 199.718 25.373 184.035 26.431 181.762 C 23.842 180.921 22.207 178.369 22.524 175.666 L 22.98 171.791 L 23.455 167.989 L 20.052 164.585 L 20.041 164.499 L 18.082 147.358 L 15.234 135.972 C 13.049 127.209 15.762 117.948 22.329 111.748 L 28.912 110.702 L 36.914 102.992 L 49.818 102.992 L 54.243 107.22 C 62.503 108.668 63.921 108.194 71.016 116.709 L 67.792 143.178 L 66.988 146.82 L 66.99 151.758 L 69.035 154.032 C 70.528 155.691 71.15 157.958 70.712 160.147 L 70.444 161.491 C 72.552 162.395 74.564 178.454 75.046 180.698 L 75.764 184.05 C 76.378 184.86 80.433 190.267 80.433 191.745 C 80.433 191.968 80.269 192.181 79.917 192.42 C 77.154 194.291 66.136 207.566 59.375 204.861 C 52.175 201.982 23.548 206.301 23.26 206.345 L 23.111 206.367 Z" style="fill: rgb(1, 17, 44);"/>
  <path d="M 21.377 175.587 C 21.377 175.587 24.691 156.861 21.353 149.818 L 8.11 150.764 L 10.125 177.481 L 21.703 207.145 C 20.932 211.132 24.766 214.46 28.605 213.133 C 32.443 211.807 33.407 206.823 30.339 204.161 C 30.31 204.137 30.282 204.112 30.253 204.088 L 21.377 175.587 Z" style="fill: rgb(246, 204, 185);"/>
  <path d="M 8.11 139.885 L 8.928 130.959 C 9.551 124.175 12.855 117.918 18.106 113.577 C 21.402 110.872 25.945 110.272 29.83 112.028 C 35.17 114.487 37.693 120.661 35.603 126.155 C 32.542 134.183 33.647 142.673 27.678 143.707 L 28.327 146.791 L 22.458 165.943 L 5.745 164.007 L 8.11 139.885 Z" style="fill: rgb(1, 17, 44);"/>
  <path d="M 96.263 166.712 C 96.263 166.712 86.561 150.353 79.438 147.191 L 70.014 156.544 L 88.966 175.485 L 117.087 190.424 C 119.103 193.95 124.18 193.97 126.225 190.462 C 128.271 186.953 125.751 182.547 121.689 182.53 C 121.652 182.53 121.614 182.53 121.577 182.531 L 96.263 166.712 Z" style="fill: rgb(246, 204, 185);"/>
  <path d="M 62.921 148.298 L 57.722 140.996 C 53.769 135.446 52.193 128.55 53.342 121.833 C 54.077 117.634 57.131 114.216 61.221 113.015 C 66.872 111.396 72.811 114.431 74.81 119.96 C 77.724 128.042 88.356 141.324 84.506 146.001 L 87.009 147.917 L 90.792 158.695 L 76.858 168.127 L 62.921 148.298 Z" style="fill: rgb(1, 17, 44);"/>
  <circle cx="42.496" cy="84.936" r="14.331" style="fill: rgb(246, 204, 185);"/>
  <path d="M 32.095 95.038 C 31.97 94.929 31.852 94.811 31.73 94.699 C 31.726 94.71 31.725 94.722 31.721 94.734 L 32.095 95.038 Z" fill="#2f2e41" style=""/>
  <path d="M 54.24 69.804 C 53.528 68.658 52.542 67.707 51.37 67.037 C 50.569 66.649 49.728 66.351 48.862 66.148 L 46.593 65.53 C 45.432 65.169 44.237 64.93 43.025 64.811 C 39.598 64.642 36.363 66.398 34.635 69.362 C 33.951 70.578 33.402 72.093 32.078 72.536 C 31.012 72.896 29.849 72.389 28.728 72.488 C 27.395 72.68 26.245 73.528 25.665 74.743 C 25.106 75.949 24.831 77.266 24.862 78.594 C 24.773 84.692 27.269 90.543 31.73 94.699 C 32.1 93.724 31.491 92.671 31.009 91.739 C 30.522 90.795 30.221 89.479 31.037 88.8 C 31.946 88.044 33.401 88.776 34.475 88.283 C 35.172 87.882 35.623 87.158 35.674 86.355 C 35.777 85.571 35.669 84.775 35.719 83.986 C 35.924 80.695 38.773 78.203 42.062 78.438 C 44.506 78.612 46.878 80.283 49.232 79.596 C 50.336 79.273 51.278 78.452 52.419 78.314 C 53.685 78.16 54.874 78.874 55.948 79.56 C 56.737 76.212 56.119 72.685 54.24 69.804 Z" style="fill: rgb(110, 78, 35);"/>
  <path d="M 487.36 8.682 L 195.508 8.682 C 193.195 8.684 191.318 10.559 191.317 12.875 L 191.317 118.369 L 261.947 118.369 C 265.927 118.373 269.155 121.601 269.159 125.581 L 269.159 214.834 L 487.36 214.834 C 488.586 214.834 489.752 214.297 490.548 213.362 C 490.582 213.326 490.611 213.287 490.64 213.247 C 490.89 212.94 491.092 212.6 491.241 212.233 C 491.451 211.729 491.559 211.187 491.558 210.641 L 491.558 12.875 C 491.556 10.559 489.677 8.682 487.36 8.682 Z" style="" fill="#f2f2f2"/>
  <rect x="191.912" y="25.487" width="299.044" height="1.199" fill="#ccc" style=""/>
  <circle cx="202.1" cy="17.672" r="3.595" fill="#ccc" style=""/>
  <circle cx="212.439" cy="17.672" r="3.595" fill="#ccc" style=""/>
  <circle cx="222.775" cy="17.672" r="3.595" fill="#ccc" style=""/>
  <path d="M 416.441 51.657 L 266.428 51.657 C 261.616 51.657 258.608 56.865 261.015 61.032 C 262.132 62.967 264.194 64.157 266.428 64.157 L 416.441 64.157 C 421.254 64.157 424.259 58.948 421.853 54.782 C 420.737 52.849 418.673 51.657 416.441 51.657 Z M 416.441 63.196 L 266.428 63.196 C 262.356 63.196 259.812 58.788 261.847 55.263 C 262.793 53.626 264.538 52.618 266.428 52.618 L 416.441 52.618 C 420.512 52.618 423.057 57.027 421.021 60.552 C 420.076 62.188 418.331 63.196 416.441 63.196 Z" fill="#ccc" style=""/>
  <path d="M 462.344 101.453 L 312.331 101.453 C 307.519 101.453 304.512 106.663 306.918 110.831 C 308.034 112.764 310.097 113.955 312.331 113.955 L 462.344 113.955 C 467.156 113.955 470.162 108.747 467.758 104.579 C 466.64 102.645 464.576 101.453 462.344 101.453 Z" fill="#fff" style=""/>
  <path d="M 462.344 124.533 L 312.331 124.533 C 307.519 124.533 304.512 129.743 306.918 133.909 C 308.034 135.843 310.097 137.034 312.331 137.034 L 462.344 137.034 C 467.156 137.034 470.162 131.826 467.758 127.658 C 466.64 125.723 464.576 124.533 462.344 124.533 Z" fill="#fff" style=""/>
  <path d="M 462.344 147.611 L 312.331 147.611 C 307.519 147.611 304.512 152.821 306.918 156.988 C 308.034 158.922 310.097 160.113 312.331 160.113 L 462.344 160.113 C 467.156 160.113 470.162 154.904 467.758 150.738 C 466.64 148.804 464.576 147.611 462.344 147.611 Z" fill="#fff" style=""/>
  <path d="M 288.089 91.117 L 219.805 91.117 C 216.754 91.12 214.283 93.592 214.28 96.642 L 214.28 118.369 L 215.241 118.369 L 215.241 96.642 C 215.244 94.124 217.285 92.082 219.805 92.079 L 288.089 92.079 C 290.608 92.08 292.649 94.123 292.652 96.642 L 292.652 164.927 C 292.649 167.446 290.608 169.486 288.089 169.488 L 269.159 169.488 L 269.159 170.45 L 288.089 170.45 C 291.139 170.448 293.612 167.977 293.614 164.927 L 293.614 96.642 C 293.612 93.59 291.139 91.118 288.089 91.117 Z" fill="#ccc" style=""/>
  <path d="M 261.947 117.408 L 130.205 117.408 C 125.694 117.414 122.037 121.068 122.032 125.581 L 122.032 291.941 C 122.037 296.453 125.694 300.109 130.205 300.115 L 261.947 300.115 C 266.459 300.109 270.114 296.453 270.121 291.941 L 270.121 125.581 C 270.114 121.068 266.459 117.414 261.947 117.408 Z M 269.159 291.941 C 269.155 295.923 265.927 299.149 261.947 299.153 L 130.205 299.153 C 126.224 299.149 122.998 295.923 122.994 291.941 L 122.994 125.581 C 122.998 121.601 126.224 118.373 130.205 118.369 L 261.947 118.369 C 265.927 118.373 269.155 121.601 269.159 125.581 L 269.159 291.941 Z" fill="#3f3d56" style=""/>
  <path d="M 235.983 232.562 L 156.169 232.562 C 148.015 232.522 147.981 220.103 156.17 220.06 L 235.983 220.06 C 244.132 220.098 244.175 232.519 235.983 232.562 Z" style="fill: rgb(231, 231, 231);"/>
  <path d="M 235.983 255.641 L 156.169 255.641 C 148.015 255.601 147.981 243.182 156.17 243.139 L 235.983 243.139 C 244.132 243.177 244.175 255.598 235.983 255.641 Z" style="fill: rgb(231, 231, 231);"/>
  <path d="M 235.983 278.719 L 156.169 278.719 C 148.015 278.68 147.981 266.261 156.17 266.218 L 235.983 266.218 C 244.132 266.257 244.175 278.677 235.983 278.719 Z" style="fill: rgb(231, 231, 231);"/>
  <path d="M 265.794 132.794 C 256.17 132.794 250.155 122.376 254.967 114.042 C 259.778 105.708 271.807 105.708 276.62 114.042 C 277.716 115.943 278.294 118.098 278.294 120.292 C 278.286 127.194 272.695 132.785 265.794 132.794 Z" fill="#3b82f6" style=""/>
  <path d="M 271.563 119.812 L 266.274 119.812 L 266.274 113.8 C 266.274 113.431 265.873 113.199 265.553 113.386 C 265.405 113.471 265.313 113.63 265.313 113.8 L 265.313 119.812 L 260.024 119.812 C 259.654 119.812 259.423 120.212 259.607 120.533 C 259.693 120.681 259.851 120.772 260.024 120.772 L 265.313 120.772 L 265.313 126.783 C 265.313 127.154 265.714 127.384 266.033 127.199 C 266.183 127.115 266.274 126.956 266.274 126.783 L 266.274 120.772 L 271.563 120.772 C 271.933 120.772 272.165 120.373 271.98 120.052 C 271.894 119.904 271.735 119.812 271.563 119.812 Z" fill="#fff" style=""/>
  <path d="M 234.541 205.059 L 157.612 205.059 C 153.232 205.054 149.684 201.505 149.677 197.125 L 149.677 154.045 C 149.684 149.666 153.232 146.117 157.612 146.112 L 234.541 146.112 C 238.92 146.117 242.469 149.666 242.475 154.045 L 242.475 197.125 C 242.469 201.505 238.92 205.054 234.541 205.059 Z" fill="#3b82f6" style=""/>
</svg>